HIERARCHY
ROOT hip
{
  OFFSET 0 0 0
  CHANNELS 6 Xposition Yposition Zposition Zrotation Yrotation Xrotation
  JOINT abdomen
  {
    OFFSET 0 20.6881 -0.73152
    CHANNELS 3 Zrotation Xrotation Yrotation
    JOINT chest
    {
      OFFSET 0 11.7043 -0.48768
      CHANNELS 3 Zrotation Xrotation Yrotation
      JOINT neck
      {
        OFFSET 0 22.1894 -2.19456
        CHANNELS 3 Zrotation Xrotation Yrotation
        JOINT head
        {
          OFFSET -0.24384 7.07133 1.2192
          CHANNELS 3 Zrotation Xrotation Yrotation
          JOINT leftEye
          {
            OFFSET 4.14528 8.04674 8.04672
            CHANNELS 3 Zrotation Xrotation Yrotation
            End Site
            {
              OFFSET 1 0 0
            }
          }
          JOINT rightEye
          {
            OFFSET -3.6576 8.04674 8.04672
            CHANNELS 3 Zrotation Xrotation Yrotation
            End Site
            {
              OFFSET 1 0 0
            }
          }
        }
      }
      JOINT rCollar
      {
        OFFSET -2.68224 19.2634 -4.8768
        CHANNELS 3 Zrotation Xrotation Yrotation
        JOINT rShldr
        {
          OFFSET -8.77824 -1.95073 1.46304
          CHANNELS 3 Zrotation Xrotation Yrotation
          JOINT rForeArm
          {
            OFFSET -28.1742 -1.7115 0.48768
            CHANNELS 3 Zrotation Xrotation Yrotation
            JOINT rHand
            {
              OFFSET -22.5879 0.773209 7.07136
              CHANNELS 3 Zrotation Xrotation Yrotation
              JOINT rThumb1
              {
                OFFSET -1.2192 -0.487915 3.41376
                CHANNELS 3 Zrotation Xrotation Yrotation
                JOINT rThumb2
                {
                  OFFSET -3.37035 -0.52449 3.41376
                  CHANNELS 3 Zrotation Xrotation Yrotation
                  End Site
                  {
                    OFFSET -1.78271 -1.18214 1.43049
                  }
                }
              }
              JOINT rIndex1
              {
                OFFSET -7.75947 0.938293 5.60832
                CHANNELS 3 Zrotation Xrotation Yrotation
                JOINT rIndex2
                {
                  OFFSET -2.54057 -0.884171 1.56538
                  CHANNELS 3 Zrotation Xrotation Yrotation
                  End Site
                  {
                    OFFSET -1.62519 -0.234802 1.16502
                  }
                }
              }
              JOINT rMid1
              {
                OFFSET -8.24714 1.18213 3.41376
                CHANNELS 3 Zrotation Xrotation Yrotation
                JOINT rMid2
                {
                  OFFSET -3.10165 -0.590103 1.0647
                  CHANNELS 3 Zrotation Xrotation Yrotation
                  End Site
                  {
                    OFFSET -2.48547 -0.328903 0.83742
                  }
                }
              }
              JOINT rRing1
              {
                OFFSET -8.82822 0.546677 1.51678
                CHANNELS 3 Zrotation Xrotation Yrotation
                JOINT rRing2
                {
                  OFFSET -2.60934 -0.819778 -0.0198488
                  CHANNELS 3 Zrotation Xrotation Yrotation
                  End Site
                  {
                    OFFSET -2.33842 -0.294052 0.168128
                  }
                }
              }
              JOINT rPinky1
              {
                OFFSET -8.27202 -0.0477905 -0.4584
                CHANNELS 3 Zrotation Xrotation Yrotation
                JOINT rPinky2
                {
                  OFFSET -1.82734 -0.647385 -0.700984
                  CHANNELS 3 Zrotation Xrotation Yrotation
                  End Site
                  {
                    OFFSET -1.69225 -0.51767 -0.607171
                  }
                }
              }
            }
          }
        }
      }
      JOINT lCollar
      {
        OFFSET 2.68224 19.2634 -4.8768
        CHANNELS 3 Zrotation Xrotation Yrotation
        JOINT lShldr
        {
          OFFSET 8.77824 -1.95073 1.46304
          CHANNELS 3 Zrotation Xrotation Yrotation
          JOINT lForeArm
          {
            OFFSET 28.1742 -1.7115 0.48768
            CHANNELS 3 Zrotation Xrotation Yrotation
            JOINT lHand
            {
              OFFSET 22.5879 0.773209 7.07136
              CHANNELS 3 Zrotation Xrotation Yrotation
              JOINT lThumb1
              {
                OFFSET 1.2192 -0.487915 3.41376
                CHANNELS 3 Zrotation Xrotation Yrotation
                JOINT lThumb2
                {
                  OFFSET 3.37035 -0.52449 3.41376
                  CHANNELS 3 Zrotation Xrotation Yrotation
                  End Site
                  {
                    OFFSET 1.78271 -1.18214 1.43049
                  }
                }
              }
              JOINT lIndex1
              {
                OFFSET 7.75947 0.938293 5.60832
                CHANNELS 3 Zrotation Xrotation Yrotation
                JOINT lIndex2
                {
                  OFFSET 2.54057 -0.884171 1.56538
                  CHANNELS 3 Zrotation Xrotation Yrotation
                  End Site
                  {
                    OFFSET 1.62519 -0.234802 1.16502
                  }
                }
              }
              JOINT lMid1
              {
                OFFSET 8.24714 1.18213 3.41376
                CHANNELS 3 Zrotation Xrotation Yrotation
                JOINT lMid2
                {
                  OFFSET 3.10165 -0.590103 1.0647
                  CHANNELS 3 Zrotation Xrotation Yrotation
                  End Site
                  {
                    OFFSET 2.48547 -0.328903 0.83742
                  }
                }
              }
              JOINT lRing1
              {
                OFFSET 8.82822 0.546677 1.51678
                CHANNELS 3 Zrotation Xrotation Yrotation
                JOINT lRing2
                {
                  OFFSET 2.60934 -0.819778 -0.0198488
                  CHANNELS 3 Zrotation Xrotation Yrotation
                  End Site
                  {
                    OFFSET 2.33842 -0.294052 0.168128
                  }
                }
              }
              JOINT lPinky1
              {
                OFFSET 8.27202 -0.0477905 -0.4584
                CHANNELS 3 Zrotation Xrotation Yrotation
                JOINT lPinky2
                {
                  OFFSET 1.82734 -0.647385 -0.700984
                  CHANNELS 3 Zrotation Xrotation Yrotation
                  End Site
                  {
                    OFFSET 1.69225 -0.51767 -0.607171
                  }
                }
              }
            }
          }
        }
      }
    }
  }
  JOINT rButtock
  {
    OFFSET -8.77824 4.35084 1.2192
    CHANNELS 3 Zrotation Xrotation Yrotation
    JOINT rThigh
    {
      OFFSET 0 -1.70687 -2.19456
      CHANNELS 3 Zrotation Xrotation Yrotation
      JOINT rShin
      {
        OFFSET 0 -36.8199 0.73152
        CHANNELS 3 Zrotation Xrotation Yrotation
        JOINT rFoot
        {
          OFFSET 0.73152 -45.1104 -5.12064
          CHANNELS 3 Zrotation Xrotation Yrotation
          End Site
          {
            OFFSET -1.1221 -3.69964 12.103
          }
        }
      }
    }
  }
  JOINT lButtock
  {
    OFFSET 8.77824 4.35084 1.2192
    CHANNELS 3 Zrotation Xrotation Yrotation
    JOINT lThigh
    {
      OFFSET 0 -1.70687 -2.19456
      CHANNELS 3 Zrotation Xrotation Yrotation
      JOINT lShin
      {
        OFFSET 0 -36.8199 0.73152
        CHANNELS 3 Zrotation Xrotation Yrotation
        JOINT lFoot
        {
          OFFSET -0.73152 -45.1104 -5.12064
          CHANNELS 3 Zrotation Xrotation Yrotation
          End Site
          {
            OFFSET 1.1221 -3.69964 12.103
          }
        }
      }
    }
  }
}
MOTION
Frames:	4
Frame Time:	0.00833333
118.044 -72.7441 33.9279 0.0 0.0 0.0 -1.54437 -0.00285734 -0.0420372 -0.425269 0.00108524 -0.0736485 -1.1368e-15 -1.59028e-15 -2.48481e-17 -3.71168e-15 3.18055e-15 -5.28022e-17 -0.0 0.0 0.0 -0.0 0.0 0.0 -7.46705e-16 1.55301e-17 1.98785e-16 -9.57612e-15 1.61513e-16 7.95139e-16 -2.11407e-13 7.55382e-14 6.36111e-15 -2.47032e-12 -1.01877e-14 -2.22639e-14 -5.82706e-12 1.42979e-13 0.0 -1.00545e-11 2.44903e-13 -1.35174e-14 -5.82201e-12 1.45908e-13 -1.90833e-14 7.73091 5.47488 0.417314 -5.82757e-12 1.43125e-13 0.0 2.90554 0.965183 0.102902 -5.81527e-12 1.43821e-13 -4.77083e-15 10.2786 0.731801 0.0259123 -5.82638e-12 1.4233e-13 6.36111e-15 2.22167 -0.733487 -0.20892 -7.44222e-16 1.43653e-17 -9.93923e-17 -1.50837e-14 -2.48481e-17 -7.95139e-16 -2.15333e-13 -5.20816e-14 -2.54444e-14 -2.46293e-12 1.24688e-13 1.90833e-14 -5.81969e-12 1.6102e-13 -1.59028e-14 -1.00637e-11 2.73528e-13 -1.19271e-14 -5.82916e-12 1.64991e-13 -6.36111e-15 -7.73091 5.47488 -0.417314 -5.82091e-12 1.61711e-13 -9.54166e-15 -2.90554 0.965183 -0.102902 -5.82503e-12 1.61513e-13 -1.11319e-14 -10.2786 0.731801 -0.0259123 -5.81525e-12 1.61016e-13 -1.59028e-14 -2.22167 -0.733487 0.20892 -2.03217e-16 0.0 -3.88251e-19 -0.638018 -1.92332 -0.00647982 -0.00940402 -2.07854 -0.0777486 -0.534058 3.99727 0.143549 2.03217e-16 0.0 3.88251e-19 -1.72076 -6.54821 0.158882 -0.00222762 6.29909 -0.068676 0.56625 0.244629 -0.0694421
206.643 -11.2288 18.7008 171.318 84.0128 146.214 -4.71695 14.9005 0.288096 0.910445 -2.19687 0.10653 2.20011 1.13125 1.34688 -2.76794 -11.102 1.5017 -0.0 0.0 0.0 -0.0 0.0 0.0 -2.76576e-14 -1.68796e-12 5.11948e-15 -5.94744 8.54275 21.0566 -10.0572 -6.91768 12.3405 0.0197042 3.11457 0.43539 -6.18966e-10 1.22916e-09 -2.32612e-10 -1.07193e-09 2.11865e-09 -3.97028e-10 -6.18961e-10 1.22916e-09 -2.32629e-10 7.73091 5.47488 0.417314 -6.18966e-10 1.22916e-09 -2.32612e-10 2.90554 0.965183 0.102902 -6.18955e-10 1.22916e-09 -2.32616e-10 10.2786 0.731801 0.0259123 -6.18968e-10 1.22916e-09 -2.32606e-10 2.22167 -0.733487 -0.20892 -2.76746e-14 -1.68796e-12 4.82247e-15 0.242784 10.1548 -21.7631 8.09635 -5.01511 -10.8624 -0.0687101 -5.82007 0.802793 7.54371e-10 1.02791e-09 -3.88017e-10 1.30896e-09 1.78326e-09 -6.59905e-10 7.54364e-10 1.02791e-09 -3.88006e-10 -7.73091 5.47488 -0.417314 7.5437e-10 1.02791e-09 -3.88014e-10 -2.90554 0.965183 -0.102902 7.54366e-10 1.02791e-09 -3.88014e-10 -10.2786 0.731801 -0.0259123 7.54376e-10 1.02791e-09 -3.8802e-10 -2.22167 -0.733487 0.20892 -2.03217e-16 0.0 -3.88251e-19 -2.31206 -12.4401 -6.61771 3.08947 23.1964 -0.125032 -3.28878 -10.6025 2.1732 2.03217e-16 0.0 3.88251e-19 -10.0268 -14.3785 2.37908 1.91221 26.5864 -0.233214 -1.05667 -10.5132 1.43231
206.638 -11.2367 18.6984 171.358 83.9959 146.255 -8.28609 30.6542 0.717042 2.33792 -4.52007 0.297432 4.471 2.32796 2.77254 -5.01742 -22.8169 3.28689 -0.0 0.0 0.0 -0.0 0.0 0.0 -6.02152e-14 -3.74268e-12 1.32627e-14 -18.5399 13.6811 44.384 -17.4828 -13.1527 25.9276 -0.0112235 6.40511 0.899761 -1.2963e-09 2.56488e-09 -4.77135e-10 -2.24488e-09 4.42081e-09 -8.14133e-10 -1.29629e-09 2.56487e-09 -4.77148e-10 7.73091 5.47488 0.417314 -1.2963e-09 2.56487e-09 -4.77135e-10 2.90554 0.965183 0.102902 -1.29629e-09 2.56487e-09 -4.77138e-10 10.2786 0.731801 0.0259123 -1.2963e-09 2.56488e-09 -4.77129e-10 2.22167 -0.733487 -0.20892 -6.02523e-14 -3.74268e-12 1.29676e-14 8.24586 15.9413 -46.2925 14.615 -9.7136 -22.6006 0.0395589 -11.9686 1.67942 1.58796e-09 2.16574e-09 -8.22396e-10 2.7555e-09 3.7575e-09 -1.399e-09 1.58795e-09 2.16574e-09 -8.22385e-10 -7.73091 5.47488 -0.417314 1.58796e-09 2.16574e-09 -8.22398e-10 -2.90554 0.965183 -0.102902 1.58795e-09 2.16574e-09 -8.22397e-10 -10.2786 0.731801 -0.0259123 1.58796e-09 2.16574e-09 -8.22404e-10 -2.22167 -0.733487 0.20892 -2.03217e-16 0.0 -3.88251e-19 -6.90815 -23.0508 -14.4647 6.4452 49.9165 -0.239966 -4.96337 -25.9762 4.72062 2.03217e-16 0.0 3.88251e-19 -18.0979 -22.6037 4.95539 4.12581 48.0326 -0.533785 -2.11634 -21.8615 3.19955
206.635 -11.2292 18.7174 170.545 83.9825 145.484 -11.7497 44.7004 1.2934 3.62356 -6.59258 0.469758 6.44067 3.38625 4.04694 -6.27105 -33.2051 5.28575 -0.0 0.0 0.0 -0.0 0.0 0.0 -8.14795e-14 -5.06392e-12 1.49609e-14 -32.732 12.3088 65.1422 -21.6093 -16.8741 38.6977 -0.0845044 9.34153 1.32177 -1.84525e-09 3.68718e-09 -6.97837e-10 -3.19569e-09 6.35547e-09 -1.19106e-09 -1.84524e-09 3.68718e-09 -6.97848e-10 7.73091 5.47488 0.417314 -1.84524e-09 3.68718e-09 -6.97837e-10 2.90554 0.965183 0.102902 -1.84524e-09 3.68718e-09 -6.97839e-10 10.2786 0.731801 0.0259123 -1.84525e-09 3.68718e-09 -6.97831e-10 2.22167 -0.733487 -0.20892 -8.15355e-14 -5.06392e-12 1.46662e-14 18.7265 13.6096 -67.8881 18.8086 -12.8798 -33.4067 0.303064 -17.4462 2.51157 2.27475e-09 3.08339e-09 -1.16402e-09 3.94699e-09 5.34922e-09 -1.97969e-09 2.27475e-09 3.0834e-09 -1.16401e-09 -7.73091 5.47488 -0.417314 2.27475e-09 3.08339e-09 -1.16402e-09 -2.90554 0.965183 -0.102902 2.27475e-09 3.08339e-09 -1.16402e-09 -10.2786 0.731801 -0.0259123 2.27476e-09 3.0834e-09 -1.16403e-09 -2.22167 -0.733487 0.20892 -2.03217e-16 0.0 -3.88251e-19 -13.8469 -31.5775 -22.9141 9.78337 73.7453 -0.676589 -4.93645 -39.5526 7.95013 2.03217e-16 0.0 3.88251e-19 -24.5693 -29.8551 7.61306 6.6043 67.1565 -1.26005 -2.35999 -31.9346 5.14382
